<svg width="200" height="185" viewBox="0 0 200 185" fill="none" xmlns="http://www.w3.org/2000/svg">
<g id="empty_table">
<path id="Vector" opacity="0.2" d="M162 0H42C36.4772 0 32 4.47715 32 10V130C32 135.523 36.4772 140 42 140H162C167.523 140 172 135.523 172 130V10C172 4.47715 167.523 0 162 0Z" fill="#CDCED9"/>
<g id="Group" filter="url(#filter0_d_10_44)">
<path id="Vector_2" d="M54 54H189C190.326 54 191.598 54.5268 192.536 55.4645C193.473 56.4021 194 57.6739 194 59V84C194 85.3261 193.473 86.5979 192.536 87.5355C191.598 88.4732 190.326 89 189 89H54C52.6739 89 51.4021 88.4732 50.4645 87.5355C49.5268 86.5979 49 85.3261 49 84V59C49 57.6739 49.5268 56.4021 50.4645 55.4645C51.4021 54.5268 52.6739 54 54 54Z" fill="white"/>
</g>
<path id="Vector_3" d="M128 62H102C100.343 62 99 63.3431 99 65C99 66.6569 100.343 68 102 68H128C129.657 68 131 66.6569 131 65C131 63.3431 129.657 62 128 62Z" fill="#CDCED9"/>
<path id="Vector_4" d="M146 75H102C100.343 75 99 76.3431 99 78C99 79.6569 100.343 81 102 81H146C147.657 81 149 79.6569 149 78C149 76.3431 147.657 75 146 75Z" fill="#CDCED9"/>
<path id="Vector_5" d="M79.5 81C84.7467 81 89 76.7467 89 71.5C89 66.2533 84.7467 62 79.5 62C74.2533 62 70 66.2533 70 71.5C70 76.7467 74.2533 81 79.5 81Z" fill="#A7A9BC"/>
<g id="Group_2" filter="url(#filter1_d_10_44)">
<path id="Vector_6" d="M11 97H146C147.326 97 148.598 97.5268 149.536 98.4645C150.473 99.4021 151 100.674 151 102V127C151 128.326 150.473 129.598 149.536 130.536C148.598 131.473 147.326 132 146 132H11C9.67392 132 8.40215 131.473 7.46447 130.536C6.52678 129.598 6 128.326 6 127V102C6 100.674 6.52678 99.4021 7.46447 98.4645C8.40215 97.5268 9.67392 97 11 97Z" fill="white"/>
</g>
<path id="Vector_7" d="M85 105H59C57.3431 105 56 106.343 56 108C56 109.657 57.3431 111 59 111H85C86.6569 111 88 109.657 88 108C88 106.343 86.6569 105 85 105Z" fill="#CDCED9"/>
<path id="Vector_8" d="M103 118H59C57.3431 118 56 119.343 56 121C56 122.657 57.3431 124 59 124H103C104.657 124 106 122.657 106 121C106 119.343 104.657 118 103 118Z" fill="#CDCED9"/>
<path id="Vector_9" d="M23.5 124C28.7467 124 33 119.747 33 114.5C33 109.253 28.7467 105 23.5 105C18.2533 105 14 109.253 14 114.5C14 119.747 18.2533 124 23.5 124Z" fill="#A7A9BC"/>
<g id="Group_3" filter="url(#filter2_d_10_44)">
<path id="Vector_10" d="M146 11H11C8.23858 11 6 13.2386 6 16V41C6 43.7614 8.23858 46 11 46H146C148.761 46 151 43.7614 151 41V16C151 13.2386 148.761 11 146 11Z" fill="white"/>
</g>
<path id="Vector_11" d="M83 19H57C55.3431 19 54 20.3431 54 22C54 23.6569 55.3431 25 57 25H83C84.6569 25 86 23.6569 86 22C86 20.3431 84.6569 19 83 19Z" fill="#CDCED9"/>
<path id="Vector_12" d="M101 32H57C55.3431 32 54 33.3431 54 35C54 36.6569 55.3431 38 57 38H101C102.657 38 104 36.6569 104 35C104 33.3431 102.657 32 101 32Z" fill="#CDCED9"/>
<path id="Vector_13" d="M36.5 38C41.7467 38 46 33.7467 46 28.5C46 23.2533 41.7467 19 36.5 19C31.2533 19 27 23.2533 27 28.5C27 33.7467 31.2533 38 36.5 38Z" fill="#A7A9BC"/>
<path id="Vector_14" d="M78.1214 169.948V180H77.3654C77.2487 180 77.1507 179.979 77.0714 179.937C76.9967 179.895 76.9197 179.827 76.8404 179.734L71.1634 172.391C71.1727 172.517 71.1797 172.641 71.1844 172.762C71.1937 172.883 71.1984 172.998 71.1984 173.105V180H69.8894V169.948H70.6594C70.7901 169.948 70.8881 169.964 70.9534 169.997C71.0187 170.025 71.0911 170.093 71.1704 170.2L76.8614 177.55C76.8474 177.415 76.8357 177.284 76.8264 177.158C76.8217 177.027 76.8194 176.906 76.8194 176.794V169.948H78.1214ZM83.1404 172.776C83.6631 172.776 84.1344 172.862 84.5544 173.035C84.9791 173.203 85.3384 173.448 85.6324 173.77C85.9311 174.087 86.1597 174.472 86.3184 174.925C86.4771 175.373 86.5564 175.877 86.5564 176.437C86.5564 176.997 86.4771 177.503 86.3184 177.956C86.1597 178.409 85.9311 178.794 85.6324 179.111C85.3384 179.428 84.9791 179.673 84.5544 179.846C84.1344 180.014 83.6631 180.098 83.1404 180.098C82.6131 180.098 82.1371 180.014 81.7124 179.846C81.2924 179.673 80.9331 179.428 80.6344 179.111C80.3357 178.794 80.1047 178.409 79.9414 177.956C79.7827 177.503 79.7034 176.997 79.7034 176.437C79.7034 175.877 79.7827 175.373 79.9414 174.925C80.1047 174.472 80.3357 174.087 80.6344 173.77C80.9331 173.448 81.2924 173.203 81.7124 173.035C82.1371 172.862 82.6131 172.776 83.1404 172.776ZM83.1404 179.034C83.8124 179.034 84.3141 178.808 84.6454 178.355C84.9767 177.902 85.1424 177.265 85.1424 176.444C85.1424 175.623 84.9767 174.986 84.6454 174.533C84.3141 174.076 83.8124 173.847 83.1404 173.847C82.4591 173.847 81.9504 174.076 81.6144 174.533C81.2831 174.986 81.1174 175.623 81.1174 176.444C81.1174 177.265 81.2831 177.902 81.6144 178.355C81.9504 178.808 82.4591 179.034 83.1404 179.034ZM92.9091 174.253C93.1378 173.786 93.4131 173.42 93.7351 173.154C94.0571 172.888 94.4444 172.755 94.8971 172.755C95.0511 172.755 95.1958 172.774 95.3311 172.811C95.4711 172.844 95.5924 172.895 95.6951 172.965L95.6041 173.994C95.5714 174.12 95.4944 174.183 95.3731 174.183C95.3078 174.183 95.2098 174.171 95.0791 174.148C94.9484 174.12 94.8084 174.106 94.6591 174.106C94.4398 174.106 94.2461 174.139 94.0781 174.204C93.9101 174.265 93.7584 174.358 93.6231 174.484C93.4924 174.605 93.3758 174.757 93.2731 174.939C93.1704 175.116 93.0748 175.319 92.9861 175.548V180H91.6211V172.888H92.4051C92.5544 172.888 92.6548 172.916 92.7061 172.972C92.7621 173.023 92.8018 173.117 92.8251 173.252L92.9091 174.253ZM101.199 175.653C101.199 175.382 101.16 175.133 101.08 174.904C101.006 174.675 100.894 174.477 100.744 174.309C100.595 174.141 100.413 174.01 100.198 173.917C99.9836 173.824 99.7363 173.777 99.4563 173.777C98.8823 173.777 98.4296 173.943 98.0983 174.274C97.7716 174.605 97.564 175.065 97.4753 175.653H101.199ZM102.326 178.985C102.158 179.181 101.965 179.351 101.745 179.496C101.526 179.636 101.293 179.75 101.045 179.839C100.798 179.928 100.541 179.993 100.275 180.035C100.014 180.077 99.755 180.098 99.4983 180.098C99.0083 180.098 98.5533 180.016 98.1333 179.853C97.718 179.685 97.3563 179.442 97.0483 179.125C96.745 178.803 96.507 178.406 96.3343 177.935C96.1663 177.459 96.0823 176.913 96.0823 176.297C96.0823 175.802 96.1593 175.343 96.3133 174.918C96.4673 174.489 96.6866 174.115 96.9713 173.798C97.2606 173.481 97.613 173.231 98.0283 173.049C98.4436 172.867 98.9103 172.776 99.4283 172.776C99.8623 172.776 100.261 172.848 100.625 172.993C100.994 173.133 101.311 173.338 101.577 173.609C101.843 173.88 102.051 174.213 102.2 174.61C102.354 175.007 102.431 175.459 102.431 175.968C102.431 176.178 102.408 176.32 102.361 176.395C102.315 176.465 102.228 176.5 102.102 176.5H97.4403C97.4543 176.925 97.515 177.296 97.6223 177.613C97.7296 177.926 97.8766 178.187 98.0633 178.397C98.2546 178.607 98.481 178.763 98.7423 178.866C99.0036 178.969 99.2953 179.02 99.6173 179.02C99.9206 179.02 100.182 178.985 100.401 178.915C100.625 178.845 100.817 178.77 100.975 178.691C101.139 178.607 101.274 178.53 101.381 178.46C101.493 178.39 101.591 178.355 101.675 178.355C101.787 178.355 101.874 178.397 101.934 178.481L102.326 178.985ZM108.091 174.113C108.054 174.174 108.014 174.218 107.972 174.246C107.93 174.269 107.877 174.281 107.811 174.281C107.737 174.281 107.653 174.255 107.559 174.204C107.471 174.153 107.361 174.097 107.23 174.036C107.104 173.975 106.955 173.919 106.782 173.868C106.61 173.817 106.404 173.791 106.166 173.791C105.97 173.791 105.791 173.817 105.627 173.868C105.469 173.915 105.333 173.982 105.221 174.071C105.109 174.155 105.023 174.258 104.962 174.379C104.902 174.496 104.871 174.622 104.871 174.757C104.871 174.934 104.923 175.081 105.025 175.198C105.133 175.315 105.27 175.415 105.438 175.499C105.611 175.583 105.805 175.66 106.019 175.73C106.239 175.795 106.46 175.865 106.684 175.94C106.913 176.015 107.135 176.101 107.349 176.199C107.569 176.292 107.762 176.411 107.93 176.556C108.103 176.696 108.241 176.866 108.343 177.067C108.451 177.268 108.504 177.513 108.504 177.802C108.504 178.133 108.444 178.441 108.322 178.726C108.206 179.006 108.031 179.249 107.797 179.454C107.569 179.659 107.284 179.82 106.943 179.937C106.603 180.054 106.213 180.112 105.774 180.112C105.284 180.112 104.832 180.03 104.416 179.867C104.001 179.704 103.653 179.496 103.373 179.244L103.695 178.719C103.733 178.654 103.779 178.605 103.835 178.572C103.891 178.535 103.966 178.516 104.059 178.516C104.148 178.516 104.239 178.549 104.332 178.614C104.426 178.679 104.538 178.752 104.668 178.831C104.799 178.906 104.958 178.976 105.144 179.041C105.331 179.102 105.564 179.132 105.844 179.132C106.078 179.132 106.281 179.104 106.453 179.048C106.626 178.987 106.768 178.908 106.88 178.81C106.997 178.707 107.083 178.591 107.139 178.46C107.195 178.329 107.223 178.192 107.223 178.047C107.223 177.86 107.17 177.706 107.062 177.585C106.96 177.459 106.822 177.352 106.649 177.263C106.481 177.174 106.288 177.097 106.068 177.032C105.849 176.967 105.625 176.897 105.396 176.822C105.168 176.747 104.944 176.661 104.724 176.563C104.505 176.465 104.309 176.341 104.136 176.192C103.968 176.043 103.831 175.861 103.723 175.646C103.621 175.431 103.569 175.17 103.569 174.862C103.569 174.587 103.625 174.323 103.737 174.071C103.854 173.819 104.02 173.597 104.234 173.406C104.454 173.215 104.722 173.063 105.039 172.951C105.361 172.834 105.728 172.776 106.138 172.776C106.61 172.776 107.034 172.851 107.412 173C107.795 173.149 108.122 173.355 108.392 173.616L108.091 174.113ZM115.897 172.888V180H115.078C114.892 180 114.77 179.909 114.714 179.727L114.616 179.013C114.462 179.176 114.301 179.326 114.133 179.461C113.965 179.596 113.786 179.713 113.594 179.811C113.403 179.904 113.2 179.977 112.985 180.028C112.771 180.084 112.54 180.112 112.292 180.112C111.9 180.112 111.555 180.047 111.256 179.916C110.962 179.785 110.715 179.603 110.514 179.37C110.314 179.132 110.162 178.847 110.059 178.516C109.957 178.185 109.905 177.818 109.905 177.417V172.888H111.277V177.417C111.277 177.926 111.394 178.322 111.627 178.607C111.861 178.887 112.218 179.027 112.698 179.027C113.048 179.027 113.375 178.945 113.678 178.782C113.982 178.614 114.266 178.385 114.532 178.096V172.888H115.897ZM119.203 169.668V180H117.831V169.668H119.203ZM123.378 180.112C122.804 180.112 122.361 179.951 122.048 179.629C121.74 179.307 121.586 178.847 121.586 178.25V173.994H120.76C120.681 173.994 120.613 173.971 120.557 173.924C120.506 173.873 120.48 173.798 120.48 173.7V173.147L121.635 172.986L121.943 170.865C121.962 170.786 121.997 170.725 122.048 170.683C122.104 170.636 122.174 170.613 122.258 170.613H122.951V173H124.967V173.994H122.951V178.159C122.951 178.439 123.019 178.649 123.154 178.789C123.294 178.924 123.472 178.992 123.686 178.992C123.812 178.992 123.92 178.976 124.008 178.943C124.102 178.91 124.181 178.875 124.246 178.838C124.312 178.796 124.368 178.759 124.414 178.726C124.461 178.693 124.503 178.677 124.54 178.677C124.587 178.677 124.622 178.689 124.645 178.712C124.673 178.731 124.701 178.763 124.729 178.81L125.135 179.468C124.911 179.673 124.645 179.832 124.337 179.944C124.029 180.056 123.71 180.112 123.378 180.112ZM130.418 174.113C130.38 174.174 130.341 174.218 130.299 174.246C130.257 174.269 130.203 174.281 130.138 174.281C130.063 174.281 129.979 174.255 129.886 174.204C129.797 174.153 129.687 174.097 129.557 174.036C129.431 173.975 129.281 173.919 129.109 173.868C128.936 173.817 128.731 173.791 128.493 173.791C128.297 173.791 128.117 173.817 127.954 173.868C127.795 173.915 127.66 173.982 127.548 174.071C127.436 174.155 127.349 174.258 127.289 174.379C127.228 174.496 127.198 174.622 127.198 174.757C127.198 174.934 127.249 175.081 127.352 175.198C127.459 175.315 127.597 175.415 127.765 175.499C127.937 175.583 128.131 175.66 128.346 175.73C128.565 175.795 128.787 175.865 129.011 175.94C129.239 176.015 129.461 176.101 129.676 176.199C129.895 176.292 130.089 176.411 130.257 176.556C130.429 176.696 130.567 176.866 130.67 177.067C130.777 177.268 130.831 177.513 130.831 177.802C130.831 178.133 130.77 178.441 130.649 178.726C130.532 179.006 130.357 179.249 130.124 179.454C129.895 179.659 129.61 179.82 129.27 179.937C128.929 180.054 128.539 180.112 128.101 180.112C127.611 180.112 127.158 180.03 126.743 179.867C126.327 179.704 125.98 179.496 125.7 179.244L126.022 178.719C126.059 178.654 126.106 178.605 126.162 178.572C126.218 178.535 126.292 178.516 126.386 178.516C126.474 178.516 126.565 178.549 126.659 178.614C126.752 178.679 126.864 178.752 126.995 178.831C127.125 178.906 127.284 178.976 127.471 179.041C127.657 179.102 127.891 179.132 128.171 179.132C128.404 179.132 128.607 179.104 128.78 179.048C128.952 178.987 129.095 178.908 129.207 178.81C129.323 178.707 129.41 178.591 129.466 178.46C129.522 178.329 129.55 178.192 129.55 178.047C129.55 177.86 129.496 177.706 129.389 177.585C129.286 177.459 129.148 177.352 128.976 177.263C128.808 177.174 128.614 177.097 128.395 177.032C128.175 176.967 127.951 176.897 127.723 176.822C127.494 176.747 127.27 176.661 127.051 176.563C126.831 176.465 126.635 176.341 126.463 176.192C126.295 176.043 126.157 175.861 126.05 175.646C125.947 175.431 125.896 175.17 125.896 174.862C125.896 174.587 125.952 174.323 126.064 174.071C126.18 173.819 126.346 173.597 126.561 173.406C126.78 173.215 127.048 173.063 127.366 172.951C127.688 172.834 128.054 172.776 128.465 172.776C128.936 172.776 129.361 172.851 129.739 173C130.121 173.149 130.448 173.355 130.719 173.616L130.418 174.113Z" fill="#6B6C7E"/>
</g>
<defs>
<filter id="filter0_d_10_44" x="43" y="51" width="157" height="47" filterUnits="userSpaceOnUse" color-interpolation-filters="sRGB">
<feFlood flood-opacity="0" result="BackgroundImageFix"/>
<feColorMatrix in="SourceAlpha" type="matrix" values="0 0 0 0 0 0 0 0 0 0 0 0 0 0 0 0 0 0 127 0" result="hardAlpha"/>
<feOffset dy="3"/>
<feGaussianBlur stdDeviation="3"/>
<feColorMatrix type="matrix" values="0 0 0 0 0 0 0 0 0 0 0 0 0 0 0 0 0 0 0.161 0"/>
<feBlend mode="normal" in2="BackgroundImageFix" result="effect1_dropShadow_10_44"/>
<feBlend mode="normal" in="SourceGraphic" in2="effect1_dropShadow_10_44" result="shape"/>
</filter>
<filter id="filter1_d_10_44" x="0" y="94" width="157" height="47" filterUnits="userSpaceOnUse" color-interpolation-filters="sRGB">
<feFlood flood-opacity="0" result="BackgroundImageFix"/>
<feColorMatrix in="SourceAlpha" type="matrix" values="0 0 0 0 0 0 0 0 0 0 0 0 0 0 0 0 0 0 127 0" result="hardAlpha"/>
<feOffset dy="3"/>
<feGaussianBlur stdDeviation="3"/>
<feColorMatrix type="matrix" values="0 0 0 0 0 0 0 0 0 0 0 0 0 0 0 0 0 0 0.161 0"/>
<feBlend mode="normal" in2="BackgroundImageFix" result="effect1_dropShadow_10_44"/>
<feBlend mode="normal" in="SourceGraphic" in2="effect1_dropShadow_10_44" result="shape"/>
</filter>
<filter id="filter2_d_10_44" x="0" y="8" width="157" height="47" filterUnits="userSpaceOnUse" color-interpolation-filters="sRGB">
<feFlood flood-opacity="0" result="BackgroundImageFix"/>
<feColorMatrix in="SourceAlpha" type="matrix" values="0 0 0 0 0 0 0 0 0 0 0 0 0 0 0 0 0 0 127 0" result="hardAlpha"/>
<feOffset dy="3"/>
<feGaussianBlur stdDeviation="3"/>
<feColorMatrix type="matrix" values="0 0 0 0 0 0 0 0 0 0 0 0 0 0 0 0 0 0 0.161 0"/>
<feBlend mode="normal" in2="BackgroundImageFix" result="effect1_dropShadow_10_44"/>
<feBlend mode="normal" in="SourceGraphic" in2="effect1_dropShadow_10_44" result="shape"/>
</filter>
</defs>
</svg>
